<?xml version="1.0" encoding="utf-8"?>
<!-- Generator: Adobe Illustrator 26.0.0, SVG Export Plug-In . SVG Version: 6.00 Build 0)  -->
<svg version="1.1" xmlns="http://www.w3.org/2000/svg" xmlns:xlink="http://www.w3.org/1999/xlink" x="0px" y="0px"
	 viewBox="0 0 2400 1080" style="enable-background:new 0 0 2400 1080;" xml:space="preserve">
<style type="text/css">
	.st0{opacity:0.5;fill:#EF6767;stroke:#000000;stroke-miterlimit:10;}
	.st1{opacity:0.5;fill:#EF6767;}
</style>
<g id="图层_1">
	<image style="overflow:visible;" width="2400" height="1080" xlink:href="大屏/0725map.png" >
	</image>
</g>
<g id="图层_2">
	<polygon class="st0" points="429.5,686.5 405.5,629.5 474.5,456.5 593.9,456.5 611.5,514.5 557.5,686.5 	"/>
</g>
<g id="图层_3">
	<polygon class="st0" points="552.5,750.5 533.5,807.5 517.9,807.5 508.5,848.5 362.5,852.5 352.5,834.5 362.5,806.5 348.5,777.5 
		371.5,719.5 538.1,719.5 	"/>
</g>
<g id="图层_4">
	<polygon class="st0" points="594.8,459.6 601.7,459.6 621.5,399.5 618.5,394.5 611.5,394.5 611.5,390.9 608.2,387.8 573.9,387.8 
		571.5,394.5 559.5,394.5 539,456.5 594.2,456.5 	"/>
</g>
<g id="图层_5">
	<polygon class="st0" points="688.5,304.5 699.5,270.5 696.5,252.5 664.6,252.5 658.5,234.5 592.6,234.5 586.5,251.5 565.5,251.5 
		552.5,286.5 557.1,304.5 	"/>
</g>
<g id="图层_6">
	<path class="st1" d="M536.3,351.5l0.5,2.1C536.6,352.9,536.4,352.2,536.3,351.5z"/>
	<path class="st1" d="M676.2,355.3c0,0-2.3,15.8-27.3,21.8s-38-7-38-7l-3.7-14.4c-0.7,2.8-5.1,15.9-28,21.2c-25.8,6-39.2-7-39.2-7
		l-4.3-16.4l-0.5-2.1c-1.9-11.4,12-23,31.2-26.1c19.2-3.1,36.3,3.7,38.2,15l1.5,7.9c0.4-4.4,2.9-8.7,7-12.4
		c-9.6,0.3-14.5-4.9-14.5-4.9l-2.2-9.4l-0.3-1.2c-1-6.5,6.3-13.3,16.4-15s19,2.1,20,8.7l1.4,8.5c0,0-0.2,1.7-1.5,3.8
		c1.3-0.3,2.7-0.6,4.1-0.8c18.6-3.1,35.2,3.7,37.1,15L676.2,355.3z"/>
</g>
<g id="图层_7">
	<path class="st1" d="M776.6,249.8h99.9h1.5c0,0,1.2,18,0.9,19.5s0.1,8.8,0.1,8.8h6.8l-1.2,9.7l2,20h2.7l-13.7,74l-1,2l-144-1v-2
		l1-1l-4-23h-4v-3.4l21-75.6h24L776.6,249.8z"/>
</g>
<g id="图层_8">
	<polygon class="st1" points="666,797 731.4,797 733,802 726,831 660,832 659,826 	"/>
	<polygon class="st1" points="631,784 631,778.7 621.5,778.7 619,773 726,386 793,386 793,390 704,778 702,784 	"/>
</g>
<g id="图层_14">
	<polygon class="st1" points="796.5,386 863.6,386 863.6,396 789,778 786.3,784 716.1,784 714,779 706,780.1 704,778 	"/>
</g>
<g id="图层_9">
	<polygon class="st1" points="1240,353 1096,353 1096,324.2 1062.2,324.2 1062.2,289.5 1064,257 1241.5,257 1243.7,257 1244,262 
		1267,262 1267,251.1 1311.3,251.1 1314,307 1314,325.8 1241,326 	"/>
	<polygon class="st1" points="949,263 1038.8,263 1038.8,291.1 1035,333 949,333 948,330 953,290 953,278 948,277.8 	"/>
</g>
<g id="图层_10">
	<polygon class="st1" points="951,566 951,559.7 971,396 1137.5,396 1131.3,566 	"/>
</g>
<g id="图层_13">
	<polygon class="st1" points="1140.6,396 1306.2,396 1316.4,566 1134.8,566 	"/>
</g>
<g id="图层_11">
	<polygon class="st1" points="1734,600 1803.3,600 1849,754 1871.9,754 1889,808 1889,810.8 1872,846 1757,845 1712,669 	"/>
</g>
<g id="图层_12">
	<path class="st1" d="M1797,599l2-5h18.1l11.9-37l-23-73h-33.3l-3.7-14c0,0-7.8,0-6.9,0c0.9,0-9.1-30-9.1-30l4-16l-20-63h-84.5
		l-9.5,38l34,143l-2,6l8,33h7l9,41l27.3,2.3l7.3-24.3L1797,599z"/>
</g>
</svg>
